<?xml version="1.0" encoding="utf-8"?>
<!-- Generator: Adobe Illustrator 26.5.0, SVG Export Plug-In . SVG Version: 6.00 Build 0)  -->
<svg version="1.1" id="Calque_1" xmlns="http://www.w3.org/2000/svg" xmlns:xlink="http://www.w3.org/1999/xlink" x="0px" y="0px"
	 viewBox="0 0 165.1 208.3" style="enable-background:new 0 0 165.1 208.3;" xml:space="preserve">
<style type="text/css">
	.st0{display:none;fill:#F5F4F5;}
	.st1{display:none;}
	.st2{display:inline;fill:none;stroke:#1D1D1B;stroke-width:1.55;stroke-linecap:round;stroke-miterlimit:10;}
	.st3{display:inline;fill:#0A0011;stroke:#1D1D1B;stroke-width:1.55;stroke-linecap:round;stroke-miterlimit:10;}
	.st4{display:inline;fill:#0A0011;}
	.st5{display:inline;}
	.st6{fill:none;stroke:#0A0011;stroke-width:1.55;stroke-linecap:round;stroke-miterlimit:10;}
	.st7{fill:#0A0011;stroke:#1D1D1B;stroke-width:1.55;stroke-linecap:round;stroke-miterlimit:10;}
	.st8{fill:none;stroke:#0A0011;stroke-linecap:round;stroke-miterlimit:10;}
	.st9{fill:none;stroke:#E1B3D4;stroke-width:2;stroke-linecap:round;stroke-miterlimit:10;}
</style>
<g>
	<g>
		<path class="st0" d="M139.2,87.7c-0.4-7.6-3.3-16.8-7.3-27.2c-1.4-3.6-4.1-11.8-14-20.3c-11.3-9.7-22.7-15.5-29.8-12.1
			c-3.4-3.7-5.4-4-11.7-0.7S53.8,38.7,47,52.2c-13.5,7.9-24.2,32-17.6,60.4c-8.9,24.6-11.2,33.6-4.8,44.7c5.9,8.9,12.6,9.3,16.7,5.5
			c4.1-3.8,7.1-1.4,8.8,0.2c1.8,1.7,6.5,1.6,11.1-1.4c6.2-3.9,16.5,4.9,25,10.4c7.8,5,27.8,14.8,31.7,5.9c4-9.1-5.7-15.9-2.3-18.7
			c7.5-1,13.5,3.3,20.1-4.4c6.2-7.1,8.7-15.7,7.8-25.3c-0.7-7.3-6-15.7-6-23.4S139.5,95.2,139.2,87.7z"/>
		<g class="st1">
			<path class="st2" d="M73.9,120.3c0,0-9.7-2.8-18,0.5"/>
			<path class="st3" d="M73.9,107.5c0,0,1.4,8.8,0,12.8"/>
			<path class="st3" d="M93.5,120.8c0,0,13.8-1.2,16.4,1.5"/>
			<ellipse transform="matrix(0.1605 -0.987 0.987 0.1605 -23.4406 133.5015)" class="st4" cx="66.8" cy="80.5" rx="3.5" ry="2.3"/>
			<g class="st5">
				<path class="st6" d="M102.6,102.1c-2.5,3.7-14.2,7.4-19.7,7.5c-4.5,0.1-18.5-6.5-19.8-10.9"/>
				<path class="st7" d="M93.7,107.6c0,0-1.6,11.2-0.2,13.2"/>
				<path class="st8" d="M82.3,88.8c0.9,2.7,4,3.3,6.2,0.8"/>
			</g>
			<ellipse transform="matrix(0.1605 -0.987 0.987 0.1605 4.4489 172.7352)" class="st4" cx="103.8" cy="83.8" rx="3.5" ry="2.3"/>
		</g>
		<g>
			<path class="st9" d="M81.2,79.5c3.2-1.7,9.1-0.5,10.3,2.5"/>
			<path class="st9" d="M61.3,92.5c-12.8-0.9-10-12.8-10-12.8c0.6-2.4,2.8-15.3,19-12.3c3.6,0.7,10.6,4.5,10.7,12.1
				c-0.1,0.2,0.5,11.8-16.2,13C63.5,92.6,62.4,92.6,61.3,92.5z"/>
			<path class="st9" d="M111.5,96.2c12.8-0.9,10-12.8,10-12.8c-0.6-2.4-2.8-15.3-19-12.3c-3.6,0.7-10.6,4.5-10.7,12.1
				c0.1,0.2-0.5,11.8,16.2,13C109.3,96.3,110.5,96.3,111.5,96.2z"/>
		</g>
		<g class="st1">
			<path class="st4" d="M47.4,80.1c0,0-3.4,12.4,12.9,16.1c0,0,0.9,6.9,2.4,10.6c2.2,5.7-9.9,22.6-7.1,28.7
				c2.1,5.6,10.1,17.6,5.3,21.5c-7.4,5.9-10.5-0.1-14.2-0.4c-6.9-0.6-9.1,6.4-12.6,4.9s-5.3-3.8-6.9-6.5
				c-6.1-10.1,0.5-22.2,5.2-36.9c1.9-9.7-1.2-13.5-0.7-28.5c0.5-15,12.4-32.5,18.4-34.7c4.4-12.9,28-27.8,38.3-24
				C91,45.8,73.2,63.7,73.2,63.7S56,79.9,41.5,81.3"/>
			<path class="st4" d="M122.6,85.4c0,0-3.3,11.9-16.5,12.6c0,0-2,7.3-4.3,10.7c-3.8,5.7,9.3,7.6,6.1,22.5
				c-1.3,6.3-13.7,3.5-14.6,13.5c-0.9,10-2.1,7.7-3.3,12.3c-0.4,8.8-13.2,5.8,4,14c39.2,18.8,10.3-8.3,17.3-15c3.1-3,6,1.3,16,0
				c3.1-0.4,4.9-3.4,4.9-3.4c7.3-8.3,10.1-18.3,4.7-33.2c-5.3-14.9-3-21.1-2.3-23.1c0.7-2.1,1.5-8.7-0.7-14.2
				c-2.2-5.5-6.2-22.3-10.3-29.9c-2.2-4.1-22-25.6-35.4-21.2c0,0,0.1,28.5,17.3,43.2c10.1,9,20.8,13.7,26.5,14"/>
		</g>
	</g>
</g>
</svg>
