<?xml version="1.0" encoding="utf-8"?>
<!-- Generator: Adobe Illustrator 26.5.0, SVG Export Plug-In . SVG Version: 6.00 Build 0)  -->
<svg version="1.1" id="Calque_1" xmlns="http://www.w3.org/2000/svg" xmlns:xlink="http://www.w3.org/1999/xlink" x="0px" y="0px"
	 viewBox="0 0 220 233.5" style="enable-background:new 0 0 220 233.5;" xml:space="preserve">
<style type="text/css">
	.st0{fill:#F5F4F5;}
	.st1{fill:none;stroke:#1D1D1B;stroke-width:1.55;stroke-linecap:round;stroke-miterlimit:10;}
	.st2{fill:#0A0011;stroke:#1D1D1B;stroke-width:1.55;stroke-linecap:round;stroke-miterlimit:10;}
	.st3{fill:#0A0011;}
	.st4{fill:none;stroke:#0A0011;stroke-width:1.55;stroke-linecap:round;stroke-miterlimit:10;}
	.st5{fill:none;stroke:#0A0011;stroke-linecap:round;stroke-miterlimit:10;}
	.st6{fill:none;stroke:#E1B3D4;stroke-width:2;stroke-linecap:round;stroke-miterlimit:10;}
</style>
<g>
	<g>
		<path class="st0" d="M183,97.4c-0.4-9.6-4.1-21.3-9.3-34.5c-1.7-4.5-5.2-15-17.7-25.7c-14.3-12.3-28.8-19.6-37.8-15.3
			c-4.3-4.7-6.8-5-14.8-0.9S74.8,35.4,66.2,52.5c-17,10-30.6,40.5-22.3,76.5c-11.3,31.2-14.2,42.5-6,56.6
			c7.5,11.2,15.9,11.8,21.2,6.9c5.2-4.9,9-1.8,11.2,0.3c2.2,2.1,8.2,2,14.1-1.8c7.8-5,20.8,6.2,31.6,13.2
			c9.9,6.4,35.2,18.7,40.2,7.5c5.1-11.5-7.2-20.1-2.9-23.7c9.6-1.3,17,4.1,25.5-5.6c7.9-9,11-19.8,9.8-32
			c-0.9-9.2-7.6-19.9-7.6-29.6S183.4,107,183,97.4z"/>
		<g>
			<path class="st1" d="M100.3,138.7c0,0-12.3-3.6-22.9,0.6"/>
			<path class="st2" d="M100.3,122.5c0,0,1.8,11.1,0,16.2"/>
			<path class="st2" d="M125.1,139.3c0,0,17.5-1.5,20.8,1.9"/>
			<ellipse transform="matrix(0.1605 -0.987 0.987 0.1605 -10.6178 164.2417)" class="st3" cx="91.2" cy="88.4" rx="4.5" ry="2.9"/>
			<g>
				<path class="st4" d="M136.6,115.6c-3.2,4.7-18,9.4-24.9,9.5c-5.7,0.1-23.4-8.2-25-13.8"/>
				<path class="st2" d="M125.4,122.7c0,0-2.1,14.1-0.2,16.7"/>
				<path class="st5" d="M110.9,98.8c1.1,3.5,5.1,4.2,7.9,1"/>
			</g>
			<ellipse transform="matrix(0.1605 -0.987 0.987 0.1605 24.6961 213.9197)" class="st3" cx="138.1" cy="92.4" rx="4.5" ry="2.9"/>
		</g>
		<g>
			<path class="st6" d="M109.6,87.1c4.1-2.1,11.6-0.7,13,3.2"/>
			<path class="st6" d="M84.3,103.5c-16.2-1.2-12.7-16.3-12.7-16.3c0.8-3.1,3.6-19.4,24-15.6c4.6,0.9,13.4,5.7,13.6,15.3
				c-0.2,0.3,0.7,15-20.5,16.4C87.1,103.6,85.7,103.6,84.3,103.5z"/>
			<path class="st6" d="M147.9,108.2c16.2-1.2,12.7-16.3,12.7-16.3c-0.8-3.1-3.6-19.4-24-15.6c-4.6,0.9-13.4,5.7-13.6,15.3
				c0.2,0.3-0.7,15,20.5,16.4C145.1,108.3,146.6,108.3,147.9,108.2z"/>
		</g>
		<g>
			<path class="st3" d="M66.7,87.8c0,0-4.3,15.7,16.3,20.4c0,0,1.2,8.7,3,13.4c2.8,7.2-12.5,28.6-9,36.3c2.7,7.1,12.7,22.3,6.7,27.2
				c-9.4,7.5-13.3-0.1-18-0.5c-8.7-0.8-11.5,8-15.9,6.3s-6.7-4.8-8.7-8.2c-7.8-12.8,0.6-28.1,6.5-46.7c2.4-12.3-1.5-17.1-0.9-36.1
				c0.6-19,15.7-41.1,23.2-44c5.6-16.3,35.4-35.2,48.5-30.4C121.9,44.4,99.3,67,99.3,67S77.6,87.6,59.3,89.4"/>
			<path class="st3" d="M162,94.5c0,0-4.2,15.1-20.9,15.9c0,0-2.5,9.2-5.4,13.6c-4.9,7.2,11.7,9.6,7.8,28.5
				c-1.7,8-17.4,4.4-18.5,17.1c-1.2,12.7-2.6,9.8-4.1,15.6c-0.5,11.1-16.7,7.3,5.1,17.8c49.7,23.8,13-10.5,21.9-19
				c3.9-3.8,7.5,1.6,20.3,0c3.9-0.5,6.2-4.4,6.2-4.4c9.3-10.5,12.7-23.2,6-42.1c-6.8-18.9-3.8-26.7-2.9-29.3
				c0.9-2.6,1.9-11-0.9-17.9c-2.8-6.9-7.9-28.3-13.1-37.8c-2.8-5.2-27.8-32.4-44.9-26.9c0,0,0.1,36.1,22,54.7
				c12.8,11.4,26.4,17.3,33.5,17.8"/>
		</g>
	</g>
</g>
</svg>
