<?xml version="1.0" encoding="utf-8"?>
<!-- Generator: Adobe Illustrator 26.5.0, SVG Export Plug-In . SVG Version: 6.00 Build 0)  -->
<svg version="1.1" id="Calque_1" xmlns="http://www.w3.org/2000/svg" xmlns:xlink="http://www.w3.org/1999/xlink" x="0px" y="0px"
	 viewBox="0 0 53 52" style="enable-background:new 0 0 53 52;" xml:space="preserve">
<style type="text/css">
	.st0{fill:#F5F5F5;stroke:#0F0F0F;stroke-width:0.5;stroke-miterlimit:10;}
</style>
<path class="st0" d="M6.7,0C3.3,0,0.5,2.8,0.5,6.2v39.6c0,3.4,2.8,6.2,6.2,6.2h39.5c3.4,0,6.2-2.8,6.2-6.2V6.2
	c0-3.4-2.8-6.2-6.2-6.2H6.7z M10.4,17.3h8.3c0.9,0,5.8-0.1,5.8,4.4c0,2.4-1.6,3.2-2.3,3.5c1.1,0.3,3.1,1.3,3.1,4.4
	c0,4.7-5.4,5-6.1,5h-8.7V17.3z M31.4,17.3H40v2.5h-8.6V17.3z M14.1,20.3v4.1h4c0.5,0,2.3-0.3,2.3-2.1s-2.3-1.9-2.7-1.9H14.1z M36,21
	c4.8,0,6.1,3.8,6.3,4.7c0.2,0.9,0.2,1.7,0.2,2.8h-9.7c0,1.1,0.6,3.5,3.4,3.5c0.8,0,1.3-0.2,1.9-0.5c0.6-0.4,0.8-0.7,1-1.1h3.2
	c-0.6,1.4-1.3,2.5-2.5,3.2c-1.1,0.7-2.5,1.1-4,1.1c-1,0-1.9-0.2-2.9-0.5c-0.8-0.4-1.5-0.9-2.1-1.4c-0.6-0.5-1-1.3-1.3-2.2
	c-0.4-0.7-0.6-1.8-0.6-2.7C28.9,27,29.3,21,36,21z M36,23.6c-2.8,0-3.2,2.7-3.2,2.9h6.1C38.6,25.5,37.8,23.6,36,23.6z M14.1,26.9
	v4.8h4.1c0.4,0,2.9-0.1,2.9-2.3c0-2.2-2-2.5-2.9-2.5H14.1z"/>
</svg>
