<svg width="53" height="52" viewBox="0 0 53 52" fill="none" xmlns="http://www.w3.org/2000/svg">
<path d="M6.68571 0C3.28063 0 0.51709 2.77333 0.51709 6.19048V45.8095C0.51709 49.2267 3.28063 52 6.68571 52H46.1648C49.5699 52 52.3335 49.2267 52.3335 45.8095V6.19048C52.3335 2.77333 49.5699 0 46.1648 0H6.68571ZM10.3869 17.3333H18.6904C19.591 17.3333 24.4639 17.2718 24.4639 21.7537C24.4639 24.1309 22.8472 24.9349 22.1193 25.2939C23.205 25.6406 25.1916 26.6438 25.1916 29.7143C25.1916 34.4562 19.7749 34.6667 19.047 34.6667H10.3869V17.3333ZM31.3602 17.3333H39.9962V19.8095H31.3602V17.3333ZM14.088 20.3415V24.404H18.0615C18.6043 24.404 20.4036 24.1057 20.4036 22.2857C20.4036 20.4657 18.0602 20.3415 17.7025 20.3415H14.088ZM35.9625 21.0476C40.7741 21.0476 42.0807 24.8111 42.2781 25.7026C42.4632 26.6064 42.4637 27.399 42.4637 28.4762H32.7168C32.7168 29.5533 33.2855 31.9801 36.1601 31.9801C36.925 31.9801 37.4911 31.7951 38.071 31.436C38.6385 31.077 38.8377 30.7287 39.0227 30.3696H42.2661C41.6986 31.7934 40.934 32.8725 39.7866 33.5906C38.6392 34.3087 37.3068 34.6667 35.777 34.6667C34.8147 34.6667 33.8646 34.4816 32.9023 34.1226C32.1374 33.7635 31.3735 33.2307 30.806 32.6983C30.2384 32.1535 29.8559 31.4352 29.4734 30.5437C29.091 29.8256 28.8927 28.7486 28.8927 27.8572C28.8927 26.9657 29.2511 21.0476 35.9625 21.0476ZM35.9625 23.5601C33.1743 23.5601 32.7168 26.2474 32.7168 26.4208H38.8372C38.6398 25.5293 37.8378 23.5601 35.9625 23.5601ZM14.088 26.8802V31.6585H18.2229C18.5795 31.6585 21.0952 31.5478 21.0952 29.3564C21.0952 27.1774 19.1186 26.8802 18.2229 26.8802H14.088Z" fill="#0F0F0F"/>
</svg>
