<svg width="61" height="47" viewBox="0 0 61 47" fill="none" xmlns="http://www.w3.org/2000/svg">
<path d="M0 4.4375C0 2.32871 1.70371 0.625 3.8125 0.625H49.5625C51.6713 0.625 53.375 2.32871 53.375 4.4375C53.375 6.54629 51.6713 8.25 49.5625 8.25H3.8125C1.70371 8.25 0 6.54629 0 4.4375ZM7.625 23.5C7.625 21.3912 9.32871 19.6875 11.4375 19.6875H57.1875C59.2963 19.6875 61 21.3912 61 23.5C61 25.6088 59.2963 27.3125 57.1875 27.3125H11.4375C9.32871 27.3125 7.625 25.6088 7.625 23.5ZM53.375 42.5625C53.375 44.6713 51.6713 46.375 49.5625 46.375H3.8125C1.70371 46.375 0 44.6713 0 42.5625C0 40.4537 1.70371 38.75 3.8125 38.75H49.5625C51.6713 38.75 53.375 40.4537 53.375 42.5625Z" fill="#E1B3D4"/>
</svg>
