<svg width="54" height="52" viewBox="0 0 54 52" fill="none" xmlns="http://www.w3.org/2000/svg">
<path d="M18.3412 52C19.1629 51.6451 19.7385 50.8251 19.7385 49.8706V43.6078C19.7385 43.3793 19.757 43.1416 19.7859 42.9004C19.7697 42.905 19.7546 42.9085 19.7385 42.9119C19.7385 42.9119 16.2714 42.9119 15.578 42.9119C13.8445 42.9119 12.3421 42.2161 11.6487 40.8243C10.8397 39.3166 10.493 36.7651 8.41274 35.3734C8.06603 35.1414 8.29717 34.7935 8.99058 34.7935C9.684 34.9095 11.1864 35.8373 12.1109 37.113C13.1511 38.3888 14.1912 39.4326 16.0403 39.4326C18.9145 39.4326 20.455 39.2876 21.3819 38.7889C22.4613 37.178 23.9556 35.9533 25.5169 35.9533V35.9243C18.9665 35.7132 14.7817 33.5281 12.8332 30.1543C8.59765 30.2031 4.90985 30.6241 2.80535 30.9743C2.73832 30.5951 2.68053 30.2135 2.63084 29.8296C4.70761 29.4863 8.22783 29.0792 12.275 29.0015C12.1456 28.6814 12.0335 28.3532 11.9387 28.0169C7.88113 27.8104 4.37939 27.9716 2.47713 28.1294C2.45402 27.7443 2.42282 27.3604 2.41819 26.9707C4.32392 26.8142 7.73089 26.6576 11.6845 26.842C11.5932 26.2621 11.5343 25.6695 11.5343 25.0525C11.5343 23.0808 12.2277 20.9932 13.4989 19.2535C12.9211 17.2819 12.1121 13.1067 13.7301 11.599C16.8504 11.599 19.0462 13.1067 20.0863 14.0345C22.0498 13.2215 24.2456 12.7576 26.6726 12.7576C29.0995 12.7576 31.2953 13.2215 33.1444 14.0334C34.1846 13.1055 36.3804 11.5978 39.5007 11.5978C41.2342 13.2215 40.3097 17.3967 39.7318 19.2524C41.0031 20.9921 41.6965 22.9637 41.5809 25.0513C41.5809 25.6126 41.5289 26.1543 41.4538 26.6854C45.4976 26.486 48.997 26.646 50.9351 26.8037C50.9328 27.1946 50.8969 27.5761 50.8761 27.9624C48.945 27.8023 45.3577 27.6376 41.2157 27.8591C41.1129 28.2488 40.9881 28.6281 40.8401 28.9957C44.9382 29.0491 48.5428 29.4469 50.719 29.7948C50.6693 30.1799 50.6115 30.5614 50.5444 30.9395C48.3348 30.5846 44.5684 30.1694 40.2831 30.1485C38.3589 33.4864 34.2504 35.6633 27.8283 35.9173V35.9533C30.8331 35.9533 33.6067 40.4764 33.6067 43.6078V49.8706C33.6067 50.8251 34.1822 51.6451 35.0039 52C45.5912 48.4835 53.2534 38.463 53.2534 26.675C53.2534 11.9666 41.3302 0 26.6726 0C12.015 0 0.0917969 11.9666 0.0917969 26.675C0.0917969 38.463 7.754 48.4835 18.3412 52Z" fill="#0F0F0F"/>
</svg>
