<svg width="79" height="75" viewBox="0 0 79 75" fill="none" xmlns="http://www.w3.org/2000/svg">
<path d="M39.508 18.2709C28.2993 18.2709 19.2583 26.8562 19.2583 37.5C19.2583 48.1438 28.2993 56.729 39.508 56.729C50.7167 56.729 59.7576 48.1438 59.7576 37.5C59.7576 26.8562 50.7167 18.2709 39.508 18.2709ZM39.508 50.0014C32.2646 50.0014 26.3431 44.395 26.3431 37.5C26.3431 30.605 32.247 24.9986 39.508 24.9986C46.769 24.9986 52.6729 30.605 52.6729 37.5C52.6729 44.395 46.7513 50.0014 39.508 50.0014ZM65.3091 17.4844C65.3091 19.978 63.1943 21.9695 60.586 21.9695C57.96 21.9695 55.8628 19.9612 55.8628 17.4844C55.8628 15.0075 57.9777 12.9993 60.586 12.9993C63.1943 12.9993 65.3091 15.0075 65.3091 17.4844ZM78.7208 22.0364C78.4212 16.0284 76.976 10.7065 72.341 6.32182C67.7236 1.93713 62.1192 0.564822 55.7923 0.263584C49.2715 -0.0878612 29.7268 -0.0878612 23.206 0.263584C16.8967 0.548087 11.2924 1.92039 6.65736 6.30509C2.02232 10.6898 0.594801 16.0117 0.277574 22.0197C-0.0925246 28.2118 -0.0925246 46.7714 0.277574 52.9636C0.577177 58.9716 2.02232 64.2935 6.65736 68.6782C11.2924 73.0629 16.8791 74.4352 23.206 74.7364C29.7268 75.0879 49.2715 75.0879 55.7923 74.7364C62.1192 74.4519 67.7236 73.0796 72.341 68.6782C76.9584 64.2935 78.4035 58.9716 78.7208 52.9636C79.0909 46.7714 79.0909 28.2286 78.7208 22.0364ZM70.2966 59.6076C68.922 62.8877 66.2608 65.4148 62.7889 66.7369C57.5899 68.6949 45.2533 68.2431 39.508 68.2431C33.7627 68.2431 21.4084 68.6782 16.227 66.7369C12.7728 65.4315 10.1116 62.9044 8.71934 59.6076C6.65736 54.6706 7.1332 42.9558 7.1332 37.5C7.1332 32.0442 6.67499 20.3127 8.71934 15.3924C10.094 12.1123 12.7552 9.58524 16.227 8.26314C21.426 6.30509 33.7627 6.75694 39.508 6.75694C45.2533 6.75694 57.6076 6.32182 62.7889 8.26314C66.2432 9.5685 68.9044 12.0956 70.2966 15.3924C72.3586 20.3294 71.8828 32.0442 71.8828 37.5C71.8828 42.9558 72.3586 54.6873 70.2966 59.6076Z" fill="white"/>
</svg>
