<?xml version="1.0" encoding="utf-8"?>
<!-- Generator: Adobe Illustrator 26.5.0, SVG Export Plug-In . SVG Version: 6.00 Build 0)  -->
<svg version="1.1" id="Calque_1" xmlns="http://www.w3.org/2000/svg" xmlns:xlink="http://www.w3.org/1999/xlink" x="0px" y="0px"
	 viewBox="0 0 53 52" style="enable-background:new 0 0 53 52;" xml:space="preserve">
<style type="text/css">
	.st0{fill:#F5F5F5;}
</style>
<path class="st0" d="M26.4,12.7c-7.5,0-13.6,6-13.6,13.3s6.1,13.3,13.6,13.3s13.6-6,13.6-13.3S34,12.7,26.4,12.7z M26.4,34.7
	c-4.9,0-8.8-3.9-8.8-8.7s3.9-8.7,8.8-8.7s8.8,3.9,8.8,8.7S31.2,34.7,26.4,34.7z M43.6,12.2c0,1.8-1.4,3.1-3.1,3.1
	c-1.8,0-3.1-1.4-3.1-3.1S38.7,9,40.5,9C42.2,9,43.6,10.4,43.6,12.2z M52.7,15.3c-0.1-4.2-1.2-7.9-4.2-10.9c-3.1-3-6.8-3.9-11.1-4.2
	C33-0.1,20-0.1,15.5,0.2c-4.2,0.1-8,1.1-11.1,4.2c-3.1,3-4.1,6.8-4.2,10.9c-0.3,4.3-0.3,17.1,0,21.5c0.1,4.2,1.2,7.9,4.2,10.9
	c3.1,3,6.8,3.9,11.1,4.2c4.3,0.3,17.3,0.3,21.8,0c4.2-0.1,8-1.1,11.1-4.2c3.1-3,4.1-6.8,4.2-10.9C52.8,32.4,52.8,19.5,52.7,15.3z
	 M47,41.3c-0.9,2.3-2.7,4.1-5,4.9c-3.5,1.4-11.7,1.1-15.6,1.1s-12.1,0.3-15.6-1.1c-2.3-1-4.1-2.7-5-4.9C4.4,37.9,4.7,29.8,4.7,26
	S4.4,14.1,5.8,10.7c0.9-2.3,2.7-4.1,5-4.9c3.5-1.4,11.7-1.1,15.6-1.1s12.1-0.3,15.6,1.1c2.3,1,4.1,2.7,5,4.9
	C48.3,14.1,48,22.2,48,26S48.3,37.8,47,41.3z"/>
</svg>
