<svg width="53" height="52" viewBox="0 0 53 52" fill="none" xmlns="http://www.w3.org/2000/svg">
<path d="M26.3623 12.6945C18.9077 12.6945 12.8084 18.6684 12.8084 26C12.8084 33.3316 18.9077 39.3055 26.3623 39.3055C33.8169 39.3055 39.9162 33.3316 39.9162 26C39.9162 18.6684 33.9525 12.6945 26.3623 12.6945ZM26.3623 34.6893C21.4829 34.6893 17.5523 30.752 17.5523 26C17.5523 21.248 21.4829 17.3107 26.3623 17.3107C31.2417 17.3107 35.1723 21.248 35.1723 26C35.1723 30.752 31.2417 34.6893 26.3623 34.6893ZM43.5757 12.1514C43.5757 13.9164 42.2203 15.2742 40.4583 15.2742C38.6963 15.2742 37.3409 13.9164 37.3409 12.1514C37.3409 10.3864 38.6963 9.02872 40.4583 9.02872C42.2203 9.02872 43.5757 10.3864 43.5757 12.1514ZM52.6568 15.2742C52.5213 11.0653 51.437 7.39948 48.4551 4.41253C45.3377 1.42559 41.6782 0.475196 37.3409 0.203655C33.0037 -0.0678851 19.992 -0.0678851 15.5192 0.203655C11.3175 0.339426 7.5224 1.28982 4.40501 4.41253C1.28762 7.39948 0.338847 11.201 0.203308 15.2742C-0.0677694 19.6188 -0.0677694 32.3812 0.203308 36.7258C0.338847 40.9347 1.42316 44.6005 4.40501 47.5875C7.5224 50.5744 11.182 51.5248 15.5192 51.7963C19.8564 52.0679 32.8682 52.0679 37.3409 51.7963C41.5426 51.6606 45.3377 50.7102 48.4551 47.5875C51.5725 44.6005 52.5213 40.799 52.6568 36.7258C52.7924 32.3812 52.7924 19.483 52.6568 15.2742ZM46.9642 41.342C46.0154 43.6501 44.2534 45.4151 41.9493 46.2298C38.4253 47.5875 30.2929 47.3159 26.3623 47.3159C22.4317 47.3159 14.2993 47.5875 10.7753 46.2298C8.47118 45.2794 6.70917 43.5144 5.7604 41.342C4.40501 37.9478 4.67609 29.8016 4.67609 26C4.67609 22.1984 4.40501 14.0522 5.7604 10.658C6.70917 8.34987 8.47118 6.58486 10.7753 5.77024C14.2993 4.41253 22.4317 4.68407 26.3623 4.68407C30.2929 4.68407 38.4253 4.41253 41.9493 5.77024C44.2534 6.72063 46.0154 8.48564 46.9642 10.658C48.3196 14.0522 48.0485 22.1984 48.0485 26C48.0485 29.8016 48.3196 37.812 46.9642 41.342Z" fill="#0F0F0F"/>
</svg>
