<?xml version="1.0" encoding="utf-8"?>
<!-- Generator: Adobe Illustrator 26.5.0, SVG Export Plug-In . SVG Version: 6.00 Build 0)  -->
<svg version="1.1" id="Calque_1" xmlns="http://www.w3.org/2000/svg" xmlns:xlink="http://www.w3.org/1999/xlink" x="0px" y="0px"
	 viewBox="0 0 53 52" style="enable-background:new 0 0 53 52;" xml:space="preserve">
<style type="text/css">
	.st0{fill:#F5F5F5;}
</style>
<path class="st0" d="M12.2,52H1.5V17.3h10.7V52z M6.8,12.5c-3.4,0-6.2-2.9-6.2-6.3c0-1.7,0.7-3.2,1.8-4.4C3.6,0.7,5.2,0,6.8,0
	s3.2,0.7,4.4,1.8c1.2,1.2,1.8,2.8,1.8,4.4C13.1,9.7,10.3,12.5,6.8,12.5z M52.4,52H41.7V35.1c0-4-0.1-9.2-5.6-9.2
	c-5.6,0-6.4,4.4-6.4,8.9V52H18.9V17.3h10.3V22h0.2c1.4-2.7,4.9-5.6,10.2-5.6c10.9,0,12.9,7.2,12.9,16.5L52.4,52L52.4,52z"/>
</svg>
