<svg width="80" height="75" viewBox="0 0 80 75" fill="none" xmlns="http://www.w3.org/2000/svg">
<path d="M18.1829 75H1.80488V24.9263H18.1829V75ZM9.98509 18.0958C4.74792 18.0958 0.5 13.9774 0.5 9.00522C0.5 6.61689 1.49932 4.32638 3.27812 2.63757C5.05692 0.948762 7.46949 0 9.98509 0C12.5007 0 14.9133 0.948762 16.6921 2.63757C18.4709 4.32638 19.4702 6.61689 19.4702 9.00522C19.4702 13.9774 15.2205 18.0958 9.98509 18.0958ZM79.4807 75H63.1379V50.6245C63.1379 44.8152 63.0145 37.3652 54.6227 37.3652C46.1074 37.3652 44.8026 43.6768 44.8026 50.2059V75H28.4421V24.9263H44.1501V31.7568H44.3794C46.5659 27.8226 51.9071 23.6707 59.8757 23.6707C76.4513 23.6707 79.4984 34.0337 79.4984 47.4938V75H79.4807Z" fill="white"/>
</svg>
