<svg width="53" height="52" viewBox="0 0 53 52" fill="none" xmlns="http://www.w3.org/2000/svg">
<path d="M12.2074 52H1.46478V17.2823H12.2074V52ZM6.83032 12.5464C3.39517 12.5464 0.608887 9.69102 0.608887 6.24362C0.608887 4.58771 1.26436 2.99962 2.4311 1.82871C3.59785 0.657808 5.18029 0 6.83032 0C8.48035 0 10.0628 0.657808 11.2295 1.82871C12.3963 2.99962 13.0518 4.58771 13.0518 6.24362C13.0518 9.69102 10.2643 12.5464 6.83032 12.5464ZM52.4137 52H41.6942V35.0996C41.6942 31.0719 41.6132 25.9066 36.1089 25.9066C30.5236 25.9066 29.6677 30.2826 29.6677 34.8094V52H18.9366V17.2823H29.2397V22.0181H29.3901C30.8243 19.2903 34.3277 16.4117 39.5544 16.4117C50.4266 16.4117 52.4253 23.5967 52.4253 32.929V52H52.4137Z" fill="black"/>
</svg>
