<svg width="79" height="75" viewBox="0 0 79 75" fill="none" xmlns="http://www.w3.org/2000/svg">
<path d="M39.5011 9.375C23.146 9.375 9.87675 21.9727 9.87675 37.5C9.87675 53.0273 23.146 65.625 39.5011 65.625C42.2321 65.625 44.4385 67.7197 44.4385 70.3125C44.4385 72.9053 42.2321 75 39.5011 75C17.684 75 0.00195312 58.2129 0.00195312 37.5C0.00195312 16.7871 17.684 0 39.5011 0C61.3183 0 79.0003 16.7871 79.0003 37.5V42.1875C79.0003 49.9512 72.3657 56.25 64.1881 56.25C59.6673 56.25 55.6094 54.3164 52.8938 51.2842C49.3759 54.3604 44.67 56.25 39.5011 56.25C28.5926 56.25 19.7515 47.8564 19.7515 37.5C19.7515 27.1436 28.5926 18.75 39.5011 18.75C43.8059 18.75 47.7867 20.0537 51.0269 22.2803C51.9063 21.5479 53.0481 21.0938 54.3133 21.0938C57.0443 21.0938 59.2507 23.1885 59.2507 25.7812V37.5V42.1875C59.2507 44.7803 61.4571 46.875 64.1881 46.875C66.9191 46.875 69.1255 44.7803 69.1255 42.1875V37.5C69.1255 21.9727 55.8563 9.375 39.5011 9.375ZM49.3759 37.5C49.3759 32.3291 44.9477 28.125 39.5011 28.125C34.0546 28.125 29.6263 32.3291 29.6263 37.5C29.6263 42.6709 34.0546 46.875 39.5011 46.875C44.9477 46.875 49.3759 42.6709 49.3759 37.5Z" fill="white"/>
</svg>
