<svg width="52" height="52" viewBox="0 0 52 52" fill="none" xmlns="http://www.w3.org/2000/svg">
<path d="M26.0918 6.5C15.3642 6.5 6.66064 15.2344 6.66064 26C6.66064 36.7656 15.3642 45.5 26.0918 45.5C27.8831 45.5 29.3303 46.9523 29.3303 48.75C29.3303 50.5477 27.8831 52 26.0918 52C11.7816 52 0.183594 40.3609 0.183594 26C0.183594 11.6391 11.7816 0 26.0918 0C40.402 0 52 11.6391 52 26V29.25C52 34.6328 47.6482 39 42.2844 39C39.3191 39 36.6575 37.6594 34.8763 35.557C32.5688 37.6898 29.4821 39 26.0918 39C18.9367 39 13.1377 33.1805 13.1377 26C13.1377 18.8195 18.9367 13 26.0918 13C28.9154 13 31.5264 13.9039 33.6517 15.4477C34.2286 14.9398 34.9775 14.625 35.8073 14.625C37.5987 14.625 39.0459 16.0773 39.0459 17.875V26V29.25C39.0459 31.0477 40.4931 32.5 42.2844 32.5C44.0757 32.5 45.5229 31.0477 45.5229 29.25V26C45.5229 15.2344 36.8194 6.5 26.0918 6.5ZM32.5688 26C32.5688 22.4148 29.6643 19.5 26.0918 19.5C22.5193 19.5 19.6147 22.4148 19.6147 26C19.6147 29.5852 22.5193 32.5 26.0918 32.5C29.6643 32.5 32.5688 29.5852 32.5688 26Z" fill="black"/>
</svg>
