<?xml version="1.0" encoding="utf-8"?>
<!-- Generator: Adobe Illustrator 26.5.0, SVG Export Plug-In . SVG Version: 6.00 Build 0)  -->
<svg version="1.1" id="Calque_1" xmlns="http://www.w3.org/2000/svg" xmlns:xlink="http://www.w3.org/1999/xlink" x="0px" y="0px"
	 viewBox="0 0 52 52" style="enable-background:new 0 0 52 52;" xml:space="preserve">
<style type="text/css">
	.st0{fill:#F5F5F5;}
</style>
<path class="st0" d="M26.1,6.5C15.4,6.5,6.7,15.2,6.7,26s8.7,19.5,19.4,19.5c1.8,0,3.2,1.5,3.2,3.2S27.9,52,26.1,52
	C11.8,52,0.2,40.4,0.2,26S11.8,0,26.1,0S52,11.6,52,26v3.2c0,5.4-4.4,9.8-9.7,9.8c-3,0-5.6-1.3-7.4-3.4c-2.3,2.1-5.4,3.4-8.8,3.4
	c-7.2,0-13-5.8-13-13s5.8-13,13-13c2.8,0,5.4,0.9,7.6,2.4c0.6-0.5,1.3-0.8,2.2-0.8c1.8,0,3.2,1.5,3.2,3.2V26v3.2
	c0,1.8,1.4,3.2,3.2,3.2c1.8,0,3.2-1.5,3.2-3.2V26C45.5,15.2,36.8,6.5,26.1,6.5z M32.6,26c0-3.6-2.9-6.5-6.5-6.5s-6.5,2.9-6.5,6.5
	s2.9,6.5,6.5,6.5S32.6,29.6,32.6,26z"/>
</svg>
