<svg width="68" height="67" viewBox="0 0 68 67" fill="none" xmlns="http://www.w3.org/2000/svg">
<path d="M65.9235 25.1991C64.7693 20.5781 62.5809 17.0936 57.9192 17.0936H51.9084V24.1822C51.9084 29.6856 47.2317 34.3216 41.8955 34.3216H25.8868C21.5099 34.3216 17.8825 38.0603 17.8825 42.442V57.6661C17.8825 62.003 21.6598 64.5453 25.8868 65.7866C30.9532 67.2671 35.8248 67.5363 41.8955 65.7866C45.9277 64.6201 49.8998 62.2722 49.8998 57.6661V51.5795H33.9062V49.5456H57.9192C62.5809 49.5456 64.3047 46.3004 65.9235 41.4401C67.6023 36.4302 67.5274 31.6147 65.9235 25.1991ZM42.8998 55.6322C44.5636 55.6322 45.9127 56.9931 45.9127 58.6681C45.9127 60.358 44.5636 61.7188 42.8998 61.7188C41.251 61.7188 39.8869 60.343 39.8869 58.6681C39.9019 56.9782 41.251 55.6322 42.8998 55.6322ZM25.1523 32.3176H41.161C45.6129 32.3176 49.1654 28.6537 49.1654 24.1971V8.95815C49.1654 4.62124 45.508 1.37604 41.161 0.643252C35.7948 -0.239084 29.9639 -0.194219 25.1523 0.658207C18.3771 1.85459 17.148 4.35205 17.148 8.9731V15.0597H33.1717V17.0936H11.1372C6.47554 17.0936 2.39842 19.8901 1.12432 25.1991C-0.344644 31.2857 -0.404602 35.0843 1.12432 41.4401C2.26351 46.1658 4.9766 49.5456 9.6383 49.5456H15.1394V42.2476C15.1394 36.9686 19.7112 32.3176 25.1523 32.3176ZM24.148 10.992C22.4842 10.992 21.1352 9.63111 21.1352 7.95617C21.1502 6.26627 22.4842 4.90538 24.148 4.90538C25.7969 4.90538 27.1609 6.28123 27.1609 7.95617C27.1609 9.63111 25.8119 10.992 24.148 10.992Z" fill="#DFB92E"/>
</svg>
