<svg width="68" height="77" viewBox="0 0 68 77" fill="none" xmlns="http://www.w3.org/2000/svg">
<path d="M21.0232 18.7306L14.8702 14.0136M34.5307 10.6661L33.4423 2.92476M54.3486 8.46306L49.7348 14.6939M65.3484 27.3862L57.7351 28.4566M59.9924 48.6053L53.8394 43.8882M11.8312 74.1216L5.04014 68.9156C4.29002 68.3406 4.1379 67.2587 4.70038 66.4991L12.7286 55.6576C13.3356 54.8379 13.1042 53.6607 12.2326 53.1345L3.4571 47.836C2.2693 47.1188 2.36777 45.3418 3.62665 44.776L37.7273 29.449C38.9433 28.9025 40.2829 29.9294 40.1019 31.2694L35.0264 68.8468C34.839 70.234 33.1874 70.8204 32.1823 69.8565L24.7566 62.7352C24.019 62.0279 22.8432 62.1262 22.2361 62.946L14.2079 73.7875C13.6454 74.5471 12.5813 74.6967 11.8312 74.1216Z" stroke="#E1B3D4" stroke-width="5" stroke-linecap="round" stroke-linejoin="round"/>
</svg>
